<?xml version="1.0" encoding="UTF-8" standalone="no"?>
<!DOCTYPE svg PUBLIC "-//W3C//DTD SVG 1.1//EN"
 "http://www.w3.org/Graphics/SVG/1.1/DTD/svg11.dtd">
<!-- Generated by graphviz version 14.1.1 (20251213.1925)
 -->
<!-- Title: finite_state_machine Pages: 1 -->
<svg width="550pt" height="935pt"
 viewBox="0.00 0.00 550.00 935.00" xmlns="http://www.w3.org/2000/svg" xmlns:xlink="http://www.w3.org/1999/xlink">
<g id="graph0" class="graph" transform="scale(1 1) rotate(0) translate(4 931.19)">
<title>finite_state_machine</title>
<polygon fill="white" stroke="none" points="-4,4 -4,-931.19 546.25,-931.19 546.25,4 -4,4"/>
<!-- _start -->
<g id="node1" class="node">
<title>_start</title>
<ellipse fill="black" stroke="black" cx="322" cy="-919.99" rx="7.2" ry="7.2"/>
</g>
<!-- &lt;start&gt; -->
<g id="node3" class="node">
<title>&lt;start&gt;</title>
<ellipse fill="#ececfe" stroke="black" cx="322" cy="-857.4" rx="39.42" ry="18.38"/>
<text xml:space="preserve" text-anchor="middle" x="322" y="-853.1" font-family="Calibri" font-size="14.00">&lt;start&gt;</text>
</g>
<!-- _start&#45;&gt;&lt;start&gt; -->
<g id="edge1" class="edge">
<title>_start&#45;&gt;&lt;start&gt;</title>
<path fill="none" stroke="black" d="M322,-912.5C322,-906.45 322,-896.97 322,-887.63"/>
<polygon fill="black" stroke="black" points="325.5,-887.65 322,-877.65 318.5,-887.65 325.5,-887.65"/>
</g>
<!-- _end -->
<g id="node2" class="node">
<title>_end</title>
<ellipse fill="none" stroke="black" cx="231" cy="-11.2" rx="7.2" ry="7.2"/>
<ellipse fill="none" stroke="black" cx="231" cy="-11.2" rx="11.2" ry="11.2"/>
</g>
<!-- &lt;connect&gt; -->
<g id="node4" class="node">
<title>&lt;connect&gt;</title>
<ellipse fill="#ececfe" stroke="black" cx="322" cy="-783.63" rx="53.21" ry="18.38"/>
<text xml:space="preserve" text-anchor="middle" x="322" y="-779.33" font-family="Calibri" font-size="14.00">&lt;connect&gt;</text>
</g>
<!-- &lt;start&gt;&#45;&gt;&lt;connect&gt; -->
<g id="edge2" class="edge">
<title>&lt;start&gt;&#45;&gt;&lt;connect&gt;</title>
<path fill="none" stroke="black" d="M322,-838.66C322,-831.1 322,-822.08 322,-813.6"/>
<polygon fill="black" stroke="black" points="325.5,-813.68 322,-803.68 318.5,-813.68 325.5,-813.68"/>
</g>
<!-- &lt;helo&gt; -->
<g id="node5" class="node">
<title>&lt;helo&gt;</title>
<ellipse fill="#ececfe" stroke="black" cx="322" cy="-692.86" rx="38.36" ry="18.38"/>
<text xml:space="preserve" text-anchor="middle" x="322" y="-688.56" font-family="Calibri" font-size="14.00">&lt;helo&gt;</text>
</g>
<!-- &lt;connect&gt;&#45;&gt;&lt;helo&gt; -->
<g id="edge3" class="edge">
<title>&lt;connect&gt;&#45;&gt;&lt;helo&gt;</title>
<path fill="none" stroke="black" d="M322,-765.09C322,-753.14 322,-737.01 322,-723.13"/>
<polygon fill="black" stroke="black" points="325.5,-723.18 322,-713.18 318.5,-723.18 325.5,-723.18"/>
<text xml:space="preserve" text-anchor="middle" x="354.25" y="-733.95" font-family="Calibri" font-size="14.00">&lt;Server:id&gt;</text>
</g>
<!-- &lt;mail_from&gt; -->
<g id="node6" class="node">
<title>&lt;mail_from&gt;</title>
<ellipse fill="#ececfe" stroke="black" cx="187" cy="-584.09" rx="62.23" ry="18.38"/>
<text xml:space="preserve" text-anchor="middle" x="187" y="-579.79" font-family="Calibri" font-size="14.00">&lt;mail_from&gt;</text>
</g>
<!-- &lt;helo&gt;&#45;&gt;&lt;mail_from&gt; -->
<g id="edge4" class="edge">
<title>&lt;helo&gt;&#45;&gt;&lt;mail_from&gt;</title>
<path fill="none" stroke="black" d="M302.66,-676.57C280.22,-658.82 242.98,-629.37 216.83,-608.68"/>
<polygon fill="black" stroke="black" points="219.29,-606.17 209.27,-602.71 214.94,-611.66 219.29,-606.17"/>
<text xml:space="preserve" text-anchor="middle" x="315.36" y="-643.18" font-family="Calibri" font-size="14.00">&lt;Client:HELO&gt;</text>
<text xml:space="preserve" text-anchor="middle" x="315.36" y="-625.18" font-family="Calibri" font-size="14.00">&lt;Server:hello&gt;</text>
</g>
<!-- &lt;end&gt; -->
<g id="node7" class="node">
<title>&lt;end&gt;</title>
<ellipse fill="#ececfe" stroke="black" cx="231" cy="-77.78" rx="36.24" ry="18.38"/>
<text xml:space="preserve" text-anchor="middle" x="231" y="-73.48" font-family="Calibri" font-size="14.00">&lt;end&gt;</text>
</g>
<!-- &lt;helo&gt;&#45;&gt;&lt;end&gt; -->
<g id="edge5" class="edge">
<title>&lt;helo&gt;&#45;&gt;&lt;end&gt;</title>
<path fill="none" stroke="black" d="M354.12,-682.53C394.61,-668.56 459,-638.02 459,-585.09 459,-585.09 459,-585.09 459,-203.17 459,-187.94 411.69,-118.73 405,-114.17 367.6,-88.68 315.87,-80.79 278.55,-78.7"/>
<polygon fill="black" stroke="black" points="279.11,-75.22 268.97,-78.28 278.81,-82.21 279.11,-75.22"/>
<text xml:space="preserve" text-anchor="middle" x="500.62" y="-425.64" font-family="Calibri" font-size="14.00">&lt;Client:HELO&gt;</text>
<text xml:space="preserve" text-anchor="middle" x="500.62" y="-407.64" font-family="Calibri" font-size="14.00">&lt;Server:error&gt;</text>
</g>
<!-- &lt;mail_from&gt;&#45;&gt;&lt;end&gt; -->
<g id="edge8" class="edge">
<title>&lt;mail_from&gt;&#45;&gt;&lt;end&gt;</title>
<path fill="none" stroke="black" d="M131.65,-575.34C76.51,-564.13 0,-537.54 0,-476.32 0,-476.32 0,-476.32 0,-203.17 0,-120.39 116.42,-92.46 183.96,-83.22"/>
<polygon fill="black" stroke="black" points="184.18,-86.72 193.66,-81.98 183.3,-79.77 184.18,-86.72"/>
<text xml:space="preserve" text-anchor="middle" x="60.75" y="-371.25" font-family="Calibri" font-size="14.00">&lt;Client:MAIL_FROM&gt;</text>
<text xml:space="preserve" text-anchor="middle" x="60.75" y="-353.25" font-family="Calibri" font-size="14.00">&lt;Server:error&gt;</text>
</g>
<!-- &lt;mail_to&gt; -->
<g id="node8" class="node">
<title>&lt;mail_to&gt;</title>
<ellipse fill="#ececfe" stroke="black" cx="187" cy="-475.32" rx="51.09" ry="18.38"/>
<text xml:space="preserve" text-anchor="middle" x="187" y="-471.02" font-family="Calibri" font-size="14.00">&lt;mail_to&gt;</text>
</g>
<!-- &lt;mail_from&gt;&#45;&gt;&lt;mail_to&gt; -->
<g id="edge7" class="edge">
<title>&lt;mail_from&gt;&#45;&gt;&lt;mail_to&gt;</title>
<path fill="none" stroke="black" d="M187,-565.46C187,-549.16 187,-524.62 187,-505.41"/>
<polygon fill="black" stroke="black" points="190.5,-505.49 187,-495.49 183.5,-505.49 190.5,-505.49"/>
<text xml:space="preserve" text-anchor="middle" x="247.75" y="-534.41" font-family="Calibri" font-size="14.00">&lt;Client:MAIL_FROM&gt;</text>
<text xml:space="preserve" text-anchor="middle" x="247.75" y="-516.41" font-family="Calibri" font-size="14.00">&lt;Server:ok&gt;</text>
</g>
<!-- &lt;end&gt;&#45;&gt;_end -->
<g id="edge6" class="edge">
<title>&lt;end&gt;&#45;&gt;_end</title>
<path fill="none" stroke="black" d="M231,-59.14C231,-51.4 231,-42.24 231,-34.07"/>
<polygon fill="black" stroke="black" points="234.5,-34.27 231,-24.27 227.5,-34.27 234.5,-34.27"/>
</g>
<!-- &lt;mail_to&gt;&#45;&gt;&lt;end&gt; -->
<g id="edge11" class="edge">
<title>&lt;mail_to&gt;&#45;&gt;&lt;end&gt;</title>
<path fill="none" stroke="black" d="M178.96,-456.87C163.04,-420 130.37,-331.56 146.75,-258.17 159.65,-200.35 193.31,-139.15 213.97,-105.28"/>
<polygon fill="black" stroke="black" points="216.83,-107.31 219.13,-96.97 210.88,-103.62 216.83,-107.31"/>
<text xml:space="preserve" text-anchor="middle" x="197.38" y="-298.87" font-family="Calibri" font-size="14.00">&lt;Client:RCPT_TO&gt;</text>
<text xml:space="preserve" text-anchor="middle" x="197.38" y="-280.87" font-family="Calibri" font-size="14.00">&lt;Server:error&gt;</text>
</g>
<!-- &lt;mail_to&gt;&#45;&gt;&lt;mail_to&gt; -->
<g id="edge10" class="edge">
<title>&lt;mail_to&gt;&#45;&gt;&lt;mail_to&gt;</title>
<path fill="none" stroke="black" d="M230.18,-485.52C244.57,-485.52 256.09,-482.12 256.09,-475.32 256.09,-470.44 250.14,-467.31 241.45,-465.93"/>
<polygon fill="black" stroke="black" points="241.91,-462.46 231.69,-465.23 241.41,-469.44 241.91,-462.46"/>
<text xml:space="preserve" text-anchor="middle" x="306.71" y="-480.02" font-family="Calibri" font-size="14.00">&lt;Client:RCPT_TO&gt;</text>
<text xml:space="preserve" text-anchor="middle" x="306.71" y="-462.02" font-family="Calibri" font-size="14.00">&lt;Server:ok&gt;</text>
</g>
<!-- &lt;data&gt; -->
<g id="node9" class="node">
<title>&lt;data&gt;</title>
<ellipse fill="#ececfe" stroke="black" cx="266" cy="-366.55" rx="38.89" ry="18.38"/>
<text xml:space="preserve" text-anchor="middle" x="266" y="-362.25" font-family="Calibri" font-size="14.00">&lt;data&gt;</text>
</g>
<!-- &lt;mail_to&gt;&#45;&gt;&lt;data&gt; -->
<g id="edge9" class="edge">
<title>&lt;mail_to&gt;&#45;&gt;&lt;data&gt;</title>
<path fill="none" stroke="black" d="M199.69,-457.17C212.44,-439.95 232.23,-413.2 246.88,-393.4"/>
<polygon fill="black" stroke="black" points="249.56,-395.65 252.7,-385.53 243.94,-391.49 249.56,-395.65"/>
<text xml:space="preserve" text-anchor="middle" x="288.82" y="-425.64" font-family="Calibri" font-size="14.00">&lt;Client:RCPT_TO&gt;</text>
<text xml:space="preserve" text-anchor="middle" x="288.82" y="-407.64" font-family="Calibri" font-size="14.00">&lt;Server:ok&gt;</text>
</g>
<!-- &lt;data&gt;&#45;&gt;&lt;end&gt; -->
<g id="edge13" class="edge">
<title>&lt;data&gt;&#45;&gt;&lt;end&gt;</title>
<path fill="none" stroke="black" d="M266.13,-347.86C265.74,-326.07 263.29,-288.27 252,-258.17 248.62,-249.17 243.04,-249.29 240,-240.17 225.14,-195.6 225.87,-140.29 228.15,-107.36"/>
<polygon fill="black" stroke="black" points="231.6,-108.06 228.91,-97.81 224.63,-107.5 231.6,-108.06"/>
<text xml:space="preserve" text-anchor="middle" x="294" y="-226.87" font-family="Calibri" font-size="14.00">&lt;Client:DATA&gt;</text>
<text xml:space="preserve" text-anchor="middle" x="294" y="-208.87" font-family="Calibri" font-size="14.00">&lt;Server:end_data&gt;</text>
<text xml:space="preserve" text-anchor="middle" x="294" y="-190.87" font-family="Calibri" font-size="14.00">&lt;Client:message&gt;</text>
<text xml:space="preserve" text-anchor="middle" x="294" y="-172.87" font-family="Calibri" font-size="14.00">&lt;Server:error&gt;</text>
</g>
<!-- &lt;quit&gt; -->
<g id="node10" class="node">
<title>&lt;quit&gt;</title>
<ellipse fill="#ececfe" stroke="black" cx="394" cy="-204.17" rx="36.77" ry="18.38"/>
<text xml:space="preserve" text-anchor="middle" x="394" y="-199.87" font-family="Calibri" font-size="14.00">&lt;quit&gt;</text>
</g>
<!-- &lt;data&gt;&#45;&gt;&lt;quit&gt; -->
<g id="edge12" class="edge">
<title>&lt;data&gt;&#45;&gt;&lt;quit&gt;</title>
<path fill="none" stroke="black" d="M275.67,-348.31C288.37,-326.34 312,-287.67 337,-258.17 346.05,-247.49 357.12,-236.76 367.08,-227.79"/>
<polygon fill="black" stroke="black" points="369.15,-230.63 374.34,-221.4 364.52,-225.38 369.15,-230.63"/>
<text xml:space="preserve" text-anchor="middle" x="391" y="-316.87" font-family="Calibri" font-size="14.00">&lt;Client:DATA&gt;</text>
<text xml:space="preserve" text-anchor="middle" x="391" y="-298.87" font-family="Calibri" font-size="14.00">&lt;Server:end_data&gt;</text>
<text xml:space="preserve" text-anchor="middle" x="391" y="-280.87" font-family="Calibri" font-size="14.00">&lt;Client:message&gt;</text>
<text xml:space="preserve" text-anchor="middle" x="391" y="-262.87" font-family="Calibri" font-size="14.00">&lt;Server:ok&gt;</text>
</g>
<!-- &lt;quit&gt;&#45;&gt;&lt;end&gt; -->
<g id="edge14" class="edge">
<title>&lt;quit&gt;&#45;&gt;&lt;end&gt;</title>
<path fill="none" stroke="black" d="M374.34,-188.17C345.75,-166.35 292.52,-125.73 259.59,-100.6"/>
<polygon fill="black" stroke="black" points="261.75,-97.85 251.68,-94.57 257.51,-103.42 261.75,-97.85"/>
<text xml:space="preserve" text-anchor="middle" x="361.63" y="-136.87" font-family="Calibri" font-size="14.00">&lt;Client:QUIT&gt;</text>
<text xml:space="preserve" text-anchor="middle" x="361.63" y="-118.87" font-family="Calibri" font-size="14.00">&lt;Server:bye&gt;</text>
</g>
</g>
</svg>
